<?xml version="1.0" encoding="UTF-8"?>
<svg id="Layer_2" data-name="Layer 2" xmlns="http://www.w3.org/2000/svg" viewBox="0 0 64.59 64.59">
  <defs>
    <style>
      .cls-1 {
        fill: #414042;
      }
    </style>
  </defs>
  <g id="Layer_1-2" data-name="Layer 1">
    <g>
      <g>
        <path class="cls-1" d="M64.09,24.86l-5.49-.72c-.22-.03-.4-.18-.47-.39-.42-1.26-.92-2.48-1.52-3.67-.1-.2-.08-.44.06-.61l3.37-4.39c.18-.23.16-.56-.05-.76l-9.71-9.71c-.21-.21-.53-.23-.76-.05l-4.39,3.37c-.18.14-.42.16-.61.06-1.18-.59-2.41-1.1-3.67-1.52-.21-.07-.36-.25-.39-.47l-.72-5.49c-.04-.29-.28-.5-.57-.5h-13.73c-.29,0-.54.22-.57.5l-.72,5.49c-.03.22-.18.4-.39.47-1.26.42-2.48.93-3.67,1.52-.2.1-.44.08-.61-.06l-4.39-3.37c-.23-.18-.56-.16-.76.05L4.6,14.31c-.21.21-.23.53-.05.76l3.37,4.39c.14.18.16.41.06.61-.59,1.18-1.1,2.41-1.52,3.67-.07.21-.25.36-.47.39l-5.49.72c-.29.04-.5.28-.5.57v13.73c0,.29.22.53.5.57l5.49.72c.22.03.4.18.47.39.42,1.26.93,2.48,1.52,3.67.1.2.08.44-.06.61l-3.37,4.39c-.18.23-.16.55.05.76l9.71,9.71c.21.21.53.23.76.05l4.39-3.37c.18-.14.41-.16.61-.06,1.18.59,2.41,1.1,3.67,1.52.21.07.36.26.39.47l.72,5.49c.04.29.28.5.57.5h13.73c.29,0,.53-.22.57-.5l.72-5.49c.03-.22.18-.4.39-.47,1.26-.42,2.48-.92,3.67-1.52.2-.1.44-.08.61.06l4.39,3.37c.23.18.55.16.76-.05l9.71-9.71c.21-.21.23-.53.05-.76l-3.37-4.39c-.14-.18-.16-.42-.06-.61.59-1.18,1.1-2.41,1.52-3.67.07-.21.26-.36.47-.39l5.49-.72c.29-.04.5-.28.5-.57v-13.73c0-.29-.22-.54-.5-.57ZM63.76,38.8c0,.08-.06.15-.14.16l-5.91.78c-.07,0-.12.05-.14.12-.51,1.72-1.2,3.39-2.06,4.97-.03.06-.03.13.01.18l3.64,4.73c.05.07.04.16-.02.22l-9.2,9.2c-.06.06-.15.07-.22.02l-4.73-3.64c-.05-.04-.12-.05-.18-.02-1.58.86-3.25,1.55-4.97,2.06-.06.02-.11.07-.12.14l-.78,5.91c-.01.08-.08.14-.16.14h-13.01c-.08,0-.15-.06-.16-.14l-.77-5.91c-.01-.07-.06-.12-.12-.14-1.72-.51-3.39-1.2-4.97-2.06-.06-.03-.13-.03-.18.02l-4.73,3.64c-.07.05-.16.04-.22-.02l-9.2-9.2c-.06-.06-.06-.15-.01-.22l3.63-4.73c.04-.05.05-.12.02-.18-.86-1.58-1.55-3.25-2.06-4.97-.02-.06-.07-.11-.14-.12l-5.91-.78c-.08-.01-.15-.08-.15-.16v-13.01c0-.08.06-.15.15-.16l5.91-.77c.07-.01.12-.06.14-.12.51-1.72,1.2-3.39,2.06-4.97.03-.06.03-.13-.02-.18l-3.63-4.73c-.05-.07-.05-.16.01-.22L14.64,5.44c.06-.06.15-.06.22-.01l4.73,3.63c.05.04.12.05.18.02,1.58-.86,3.25-1.55,4.97-2.06.06-.02.11-.07.12-.14l.77-5.91c.01-.08.08-.15.16-.15h13.01c.08,0,.15.06.16.15l.78,5.91c0,.07.05.12.12.14,1.72.51,3.39,1.2,4.97,2.06.06.03.13.03.18-.02l4.73-3.63c.07-.05.16-.05.22.01l9.2,9.2c.06.06.07.15.02.22l-3.64,4.73c-.04.05-.05.12-.01.18.85,1.58,1.54,3.25,2.06,4.97.02.06.07.11.14.12l5.91.77c.08.01.14.08.14.16v13.01Z"/>
        <path class="cls-1" d="M62.59,26.54l-5.69-.75c-.07,0-.12-.06-.14-.12-.57-2.09-1.4-4.11-2.48-5.99-.04-.06-.03-.13.01-.18l3.49-4.55c.05-.07.04-.16-.02-.22l-7.91-7.91c-.06-.06-.15-.06-.22-.01l-4.55,3.49c-.05.04-.13.05-.18.01-1.88-1.08-3.9-1.91-5.99-2.48-.06-.02-.11-.07-.12-.14l-.74-5.69c-.01-.08-.08-.15-.17-.15h-11.19c-.08,0-.15.06-.16.15l-.75,5.69c0,.07-.06.12-.12.14-2.09.57-4.11,1.4-5.99,2.48-.06.03-.13.03-.18-.01l-4.55-3.49c-.07-.05-.16-.05-.22.01l-7.91,7.91c-.06.06-.06.15-.01.22l3.49,4.55c.04.05.05.12.01.18-1.08,1.88-1.91,3.9-2.48,5.99-.02.07-.07.11-.14.12l-5.69.75c-.08.01-.15.08-.15.16v11.19c0,.08.06.15.15.17l5.69.74c.07.01.12.06.14.12.57,2.1,1.4,4.11,2.48,5.99.03.06.03.13-.01.18l-3.49,4.55c-.05.07-.05.16.01.22l7.91,7.91c.06.06.15.07.22.02l4.55-3.5c.05-.04.13-.05.18-.01,1.88,1.08,3.9,1.91,5.99,2.48.07.02.11.07.12.14l.75,5.69c.01.08.08.14.16.14h11.19c.09,0,.15-.06.17-.14l.74-5.69c.01-.07.06-.12.12-.14,2.1-.57,4.11-1.4,5.99-2.48.06-.04.13-.03.18.01l4.55,3.5c.07.05.16.04.22-.02l7.91-7.91c.06-.06.07-.15.02-.22l-3.49-4.55c-.04-.05-.05-.13-.01-.18,1.08-1.88,1.91-3.9,2.48-5.99.02-.06.07-.11.14-.12l5.69-.74c.08-.01.14-.08.14-.17v-11.19c0-.08-.06-.15-.14-.16ZM61.49,36.8c0,.08-.06.15-.15.17l-5.44.71c-.07,0-.12.06-.14.13-.6,2.54-1.6,4.97-2.98,7.19-.04.06-.03.13.01.19l3.34,4.35c.05.07.05.16-.02.22l-6.37,6.37c-.06.06-.15.07-.22.02l-4.35-3.34c-.06-.04-.13-.05-.19-.01-2.22,1.37-4.65,2.38-7.19,2.98-.07.02-.12.07-.13.14l-.71,5.44c-.01.08-.08.15-.17.15h-9.01c-.08,0-.15-.06-.16-.15l-.71-5.44c-.01-.07-.06-.12-.13-.14-2.54-.6-4.97-1.6-7.19-2.98-.06-.04-.13-.03-.19.01l-4.35,3.34c-.07.05-.16.05-.22-.02l-6.37-6.37c-.06-.06-.07-.15-.02-.22l3.34-4.35c.04-.06.05-.13.01-.19-1.37-2.22-2.38-4.65-2.98-7.19-.02-.07-.07-.12-.14-.13l-5.44-.71c-.08-.01-.14-.08-.14-.17v-9.01c0-.08.06-.15.14-.16l5.44-.71c.07-.01.13-.06.14-.13.6-2.54,1.6-4.97,2.98-7.19.04-.06.03-.13-.01-.19l-3.34-4.35c-.05-.07-.04-.16.02-.22l6.37-6.37c.06-.06.15-.07.22-.02l4.35,3.34c.05.04.13.05.19.01,2.22-1.37,4.65-2.38,7.19-2.98.07-.02.12-.07.13-.14l.71-5.44c.01-.08.08-.14.16-.14h9.01c.09,0,.16.06.17.14l.71,5.44c0,.07.06.13.13.14,2.54.6,4.97,1.6,7.19,2.98.06.04.13.03.19-.01l4.35-3.34c.07-.05.16-.05.22.02l6.37,6.37c.06.06.07.15.02.22l-3.34,4.35c-.04.06-.05.13-.01.19,1.38,2.22,2.38,4.65,2.98,7.19.02.07.07.12.14.13l5.44.71c.08.01.15.08.15.16v9.01Z"/>
      </g>
      <g>
        <path class="cls-1" d="M22.29,40.47c-.04-.06-.1-.05-.15-.05-.33-.01-.66-.03-.98-.07-.08-.01-.18,0-.19-.11-.02-.12.07-.14.17-.16.36-.07.71-.19,1.07-.24.47-.07.69-.37.87-.72.14-.26.37-.35.63-.2.46.26.92.52,1.35.82.39.28.77.14,1.15.04.63-.16,1.26-.35,1.85-.6.55-.23,1.1-.48,1.63-.76.67-.35,1.29-.76,1.88-1.2.64-.48,1.19-1.05,1.41-1.84.07-.25.06-.52-.02-.76-.18-.54-.45-1.05-.69-1.58-.3-.66-.64-1.31-.91-1.99-.1-.26-.34-.45-.54-.64-.19-.17-.32-.38-.42-.61-.04-.1-.04-.21.07-.24.21-.05.41-.11.65-.07.99.15,1.78.72,2.63,1.15.38.2.76.41,1.19.49.75.14,1.16-.03,1.57-.67.51-.79.95-1.61,1.38-2.44.42-.81.84-1.63,1.27-2.44.2-.38.45-.74.67-1.11.05-.09.14-.2.04-.3-.09-.1-.21-.04-.32-.02-.29.07-.57.14-.86.19-.38.06-.66.27-.95.48-.57.41-1.08.9-1.77,1.15-.38.14-.64.05-.85-.29-.27-.44-.31-.95-.41-1.43-.03-.17-.05-.37-.1-.53-.13-.45.12-.76.36-1.09.24-.32.61-.39.97-.51.7-.22,1.43-.37,2.03-.81.58-.43,1.26-.7,1.89-1.05.54-.3,1.12-.53,1.69-.78.71-.3,1.43-.57,2.2-.71.22-.04.44-.09.65-.08.52,0,1.04-.03,1.54-.09.39-.05.77-.13,1.17-.16.58-.04,1.13-.22,1.71-.27.49-.04.96-.19,1.46-.2.37,0,.69.17.73.59,0,.02,0,.03,0,.05.25.71-.08,1.34-.32,1.97-.19.5-.56.86-.94,1.22-.09.09-.23.12-.36.14-.29.04-.57.1-.87.07-.34-.03-.68.11-1.02.22-.39.13-.77.28-1.07.55-.17.15-.31.32-.36.54-.16.67-.23,1.36-.34,2.04-.07.44-.1.88-.15,1.32-.08.59-.08,1.18-.22,1.77-.1.44-.16.89-.17,1.34,0,.57.31,1.01.78,1.32.76.51,1.63.83,2.47,1.2.39.17.79.32,1.08.63.11.11.2.24.14.38-.06.15-.23.17-.4.19-.53.05-1.07-.04-1.6.06-.49.1-.98.25-1.48.33-.69.12-1.36.34-2.05.46-.18.03-.35.12-.55.11-.07,0-.14.06-.19.14-.33.49-.64,1-1,1.47-.35.48-.72.94-1.12,1.38-.48.54-.99,1.07-1.54,1.54-.82.7-1.75,1.26-2.66,1.84-.85.53-1.71,1.02-2.63,1.38-.48.19-.97.39-1.48.54-.53.15-1.05.35-1.59.48-.23.06-.28.28-.36.45-.13.27-.24.56-.34.84-.06.17-.19.27-.35.3-.16.03-.28-.07-.36-.2-.22-.32-.38-.32-.63-.01-.28.34-.49.73-.78,1.06-.15.17-.27.18-.42.01-.35-.38-.63-.81-.89-1.25-.1-.17-.05-.29.06-.41.09-.1.18-.2.28-.31-.14-.11-.28-.02-.41-.02-.89-.02-1.77.06-2.65.14-.54.05-1.09.17-1.55.56-.37.31-.77.59-1.22.8-.49.24-1.02.37-1.55.5-.14.03-.27.08-.4.1-.1.02-.2,0-.25-.1-.06-.1,0-.16.07-.24.22-.3.56-.48.77-.8.16-.25.16-.44-.07-.64-.15-.14-.31-.25-.51-.32-.04-.01-.09-.05-.1-.09-.03-.11,0-.25-.15-.3-.27-.09-.52-.24-.82-.24-.48,0-.75.29-.99.64-.47.7-.78,1.48-1.14,2.23-.32.66-.65,1.31-1.2,1.84-.17.17-.35.31-.59.37-.08.02-.18.09-.25,0-.06-.08-.03-.17,0-.25.06-.17.14-.34.2-.51.39-1.17.69-2.36.99-3.56.1-.39.16-.79.28-1.18.08-.25-.03-.49-.09-.72-.16-.71-.32-1.42-.6-2.1-.21-.51-.46-1.02-.73-1.51-.46-.82-1-1.59-1.55-2.36-.24-.33-.5-.66-.75-.99-.1-.13-.24-.15-.37-.08-.15.08-.23.03-.33-.08-.18-.2-.37-.4-.57-.59-.12-.12-.1-.21.06-.27.16-.06.32-.13.45-.24.09-.08.2-.06.3-.02.49.19.95.41,1.41.66.47.26.93.52,1.37.82.48.32.92.69,1.34,1.09.62.61,1.09,1.31,1.53,2.05.42.72.9,1.4,1.33,2.11.26.43.67.54,1.11.52.8-.05,1.58-.24,2.35-.47.01,0,.02-.02.03-.03h0Z"/>
        <path class="cls-1" d="M16.89,18.24c.99-.01,1.86.09,2.64.51.56.3,1.12.65,1.43,1.23.25.46.44.95.6,1.46.21.69.41,1.38.67,2.06.19.5.59.84.96,1.18.7.63,1.45,1.21,2.19,1.8.8.64,1.58,1.31,2.37,1.96.32.27.64.54.97.8.58.45,1.01,1.02,1.35,1.66.46.87,1.03,1.68,1.48,2.56.21.41.39.82.48,1.27.02.1.02.21,0,.31-.1.47-.32.9-.6,1.3-.06.09-.11.14-.22.03-1.13-1.04-2.35-1.97-3.53-2.94-.87-.71-1.72-1.44-2.59-2.15-.74-.61-1.49-1.2-2.22-1.8-.69-.57-1.36-1.17-2.08-1.7-.45-.33-1.01-.47-1.59-.52-.93-.08-1.87-.16-2.78-.41-.95-.26-1.74-.75-2.42-1.42-.48-.47-.9-.98-1.15-1.6-.12-.3-.15-.61-.11-.91.04-.33.17-.39.49-.24.79.36,1.58.73,2.38,1.09.71.32.93.19,1.41-.25.6-.55.9-1.26.93-2.06.02-.61-.23-1.09-.8-1.36-.55-.26-1.08-.56-1.62-.85-.19-.1-.39-.17-.58-.26-.21-.1-.22-.21-.04-.35.13-.1.28-.13.43-.17.54-.12,1.1-.18,1.56-.19h0Z"/>
        <path class="cls-1" d="M37.58,41.47c1.37-.34,2.42-1.1,3.3-2.09.09-.1.14-.09.23-.01.66.54,1.33,1.08,1.99,1.62.44.36.85.76,1.32,1.07.49.31,1.06.49,1.61.69.47.17.96.11,1.43.22,1.6.36,2.77,1.76,2.8,3.38.02,1.58-1.16,3.05-2.75,3.42-2.02.47-3.9-.65-4.43-2.61-.13-.47-.42-.88-.66-1.31-.4-.7-.99-1.2-1.62-1.7-.85-.68-1.69-1.38-2.53-2.07-.23-.19-.49-.34-.7-.6h0ZM48.36,44.87c0-.09,0-.14,0-.19.03-.2-.08-.23-.25-.2-.05,0-.1.02-.14.03-.39.08-.41.07-.62-.27-.2-.33-.24-.34-.55-.09-.23.18-.46.19-.69.03-.24-.16-.35-.13-.46.13-.18.43-.31.53-.64.47-.28-.05-.4.03-.32.29.11.39-.02.63-.39.77-.2.08-.22.16-.07.33.22.25.45.53.1.86-.02.02-.01.06-.03.09-.11.16-.05.23.13.27.42.1.54.27.53.7,0,.29,0,.29.3.27.06,0,.13-.02.19-.03.23-.05.4.01.51.22.04.07.1.13.13.2.07.19.17.19.3.06.31-.31.64-.36,1-.07.13.1.22.06.27-.09.04-.12.07-.26.14-.37.14-.22.37-.2.59-.2.29,0,.32-.03.26-.3-.01-.07-.03-.14-.05-.21-.05-.15,0-.27.12-.38.1-.09.23-.11.34-.19.15-.1.2-.17.06-.33-.14-.16-.36-.3-.28-.57.04-.14.17-.23.21-.37.04-.14.06-.22-.12-.28-.3-.11-.67-.19-.56-.6h0Z"/>
      </g>
    </g>
  </g>
</svg>